<svg id="Слой_1" data-name="Слой 1" xmlns="http://www.w3.org/2000/svg" xmlns:xlink="http://www.w3.org/1999/xlink" viewBox="0 0 934.91 283.59">
  <defs>
    <clipPath id="clip-path" transform="translate(-11.5 -134.74)">
      <path d="M218.67,279.67c0-51.47,12.47-91.25,22.93-115.58a164.5,164.5,0,1,0,.68,223C231.28,361.78,218.67,323.27,218.67,279.67Z" style="fill: none"/>
    </clipPath>
  </defs>
  <title>logo-new-2020</title>
  <path d="M288.33,418.33S248.67,357,248.67,279.67c0-88.67,37-142.67,37-142.67S268,204.67,268,280.33C268,348.33,288.33,418.33,288.33,418.33Z" transform="translate(-11.5 -134.74)" style="fill: #9f2d20"/>
  <g>
    <path d="M338.79,220.74h10.32V193.38h7v33.23H314.33V193.38h7v27.36H331.7V193.38h7.09v27.36Z" transform="translate(-11.5 -134.74)" style="fill: #5a6069"/>
    <path d="M391.61,226.61h-8l-12-16.84v16.84h-7V193.38h7v16.09l11.91-16.09H391l-12.11,16Z" transform="translate(-11.5 -134.74)" style="fill: #5a6069"/>
    <path d="M425.95,209.95q0,8.25-4.09,12.68t-11.73,4.43q-7.64,0-11.73-4.43t-4.09-12.73q0-8.29,4.1-12.67t11.76-4.37q7.66,0,11.72,4.41T425.95,209.95Zm-24.25,0q0,5.57,2.11,8.39a7.39,7.39,0,0,0,6.32,2.82q8.43,0,8.43-11.2t-8.39-11.23a7.45,7.45,0,0,0-6.34,2.83Q401.7,204.38,401.7,209.95Z" transform="translate(-11.5 -134.74)" style="fill: #5a6069"/>
    <path d="M459.13,226.61h-7V199.24H444l-0.36,3q-1.41,11.61-2.49,16.31T438,225.2a7.77,7.77,0,0,1-5.59,1.86,10.34,10.34,0,0,1-3.36-.5v-5.77a7.61,7.61,0,0,0,2.48.45,2.17,2.17,0,0,0,1.91-1.1,13.54,13.54,0,0,0,1.33-4.09q0.62-3,1.66-9.8t1.76-12.87h21v33.23Z" transform="translate(-11.5 -134.74)" style="fill: #5a6069"/>
    <path d="M487.86,226.61l-2.41-7.91H473.33l-2.41,7.91h-7.59l11.73-33.36h8.61l11.77,33.36h-7.59Zm-4.09-13.82Q480.42,202,480,200.63t-0.6-2.23q-0.75,2.91-4.3,14.39h8.66Z" transform="translate(-11.5 -134.74)" style="fill: #5a6069"/>
    <path d="M538,226.61h-7V199.24H518.76v27.36h-7V193.38H538v33.23Z" transform="translate(-11.5 -134.74)" style="fill: #5a6069"/>
    <path d="M565.54,226.61H546.4V193.38h19.14v5.77H553.45v7.3H564.7v5.77H553.45v8.57h12.09v5.82Z" transform="translate(-11.5 -134.74)" style="fill: #5a6069"/>
    <path d="M595.42,203.74q0,5.36-3.35,8.2t-9.53,2.84h-3v11.82h-7V193.38h10.61q6,0,9.19,2.6T595.42,203.74ZM579.51,209h2.32a7.72,7.72,0,0,0,4.86-1.28,4.49,4.49,0,0,0,1.61-3.74,4.61,4.61,0,0,0-1.35-3.66,6.34,6.34,0,0,0-4.24-1.18h-3.2V209Z" transform="translate(-11.5 -134.74)" style="fill: #5a6069"/>
    <path d="M620.83,226.61H601.69V193.38h19.14v5.77H608.74v7.3H620v5.77H608.74v8.57h12.09v5.82Z" transform="translate(-11.5 -134.74)" style="fill: #5a6069"/>
    <path d="M627.76,193.38H638.1q7.07,0,10.26,2t3.19,6.4a8.06,8.06,0,0,1-1.4,4.89,5.58,5.58,0,0,1-3.72,2.3v0.23a7.32,7.32,0,0,1,4.56,2.64,8.58,8.58,0,0,1,1.4,5.14,8.46,8.46,0,0,1-3.28,7.09q-3.29,2.55-8.92,2.55H627.76V193.38Zm7,13.16h4.09a7.48,7.48,0,0,0,4.15-.89,3.31,3.31,0,0,0,1.28-2.93,2.93,2.93,0,0,0-1.4-2.74,9,9,0,0,0-4.42-.83h-3.7v7.39Zm0,5.59v8.66h4.59a6.81,6.81,0,0,0,4.3-1.11,4.11,4.11,0,0,0,1.39-3.41q0-4.14-5.91-4.14h-4.36Z" transform="translate(-11.5 -134.74)" style="fill: #5a6069"/>
    <path d="M689.19,209.95q0,8.25-4.09,12.68t-11.73,4.43q-7.64,0-11.73-4.43t-4.09-12.73q0-8.29,4.1-12.67t11.76-4.37q7.66,0,11.72,4.41T689.19,209.95Zm-24.25,0q0,5.57,2.11,8.39a7.39,7.39,0,0,0,6.32,2.82q8.43,0,8.43-11.2t-8.39-11.23a7.44,7.44,0,0,0-6.34,2.83Q664.94,204.38,664.94,209.95Z" transform="translate(-11.5 -134.74)" style="fill: #5a6069"/>
    <path d="M692.13,220.74h2.57a78.2,78.2,0,0,0,5.2-13.17,90.36,90.36,0,0,0,2.84-14.19H722.1v27.36h4.43v15.55h-6.8v-9.68H698.92v9.68h-6.8V220.74Zm16.2-21.5a84.81,84.81,0,0,1-6.23,21.5h13v-21.5h-6.75Z" transform="translate(-11.5 -134.74)" style="fill: #5a6069"/>
    <path d="M752,226.61l-2.41-7.91H737.47l-2.41,7.91h-7.59l11.73-33.36h8.61l11.77,33.36H752Zm-4.09-13.82q-3.34-10.75-3.76-12.16t-0.6-2.23q-0.75,2.91-4.3,14.39h8.66Z" transform="translate(-11.5 -134.74)" style="fill: #5a6069"/>
    <path d="M314.33,263.23h6.34v16l-0.09,4.3-0.23,4.89h0.14l15.34-25.23h8.43v33.23H338v-16q0-3.2.41-9.5h-0.18l-15.41,25.45h-8.48V263.23Z" transform="translate(-11.5 -134.74)" style="fill: #5a6069"/>
    <path d="M364.74,263.23h6.34v16l-0.09,4.3-0.23,4.89h0.14l15.34-25.23h8.43v33.23H388.4v-16q0-3.2.41-9.5h-0.18l-15.41,25.45h-8.48V263.23Z" transform="translate(-11.5 -134.74)" style="fill: #5a6069"/>
    <path d="M430.29,296.46h-7V282.12H410.11v14.34h-7V263.23h7v13h13.16v-13h7v33.23Z" transform="translate(-11.5 -134.74)" style="fill: #5a6069"/>
    <path d="M468.83,279.8q0,8.25-4.09,12.68T453,296.91q-7.64,0-11.73-4.43t-4.09-12.73q0-8.29,4.1-12.67t11.76-4.37q7.66,0,11.72,4.41T468.83,279.8Zm-24.25,0q0,5.57,2.11,8.39A7.39,7.39,0,0,0,453,291q8.43,0,8.43-11.2t-8.39-11.23a7.45,7.45,0,0,0-6.34,2.83Q444.58,274.23,444.58,279.8Z" transform="translate(-11.5 -134.74)" style="fill: #5a6069"/>
    <path d="M489.83,268.62a7.18,7.18,0,0,0-6.16,3q-2.18,3-2.18,8.33,0,11.11,8.34,11.11a26.37,26.37,0,0,0,8.48-1.75v5.91a23.54,23.54,0,0,1-9.14,1.7q-7.25,0-11.09-4.4t-3.84-12.62a20.61,20.61,0,0,1,1.89-9.08,13.63,13.63,0,0,1,5.42-6,16,16,0,0,1,8.28-2.08,22.36,22.36,0,0,1,9.73,2.34l-2.27,5.73a37.73,37.73,0,0,0-3.75-1.55A11.2,11.2,0,0,0,489.83,268.62Z" transform="translate(-11.5 -134.74)" style="fill: #5a6069"/>
    <path d="M518.2,296.46h-7V269.1h-9v-5.86h25.09v5.86h-9v27.36Z" transform="translate(-11.5 -134.74)" style="fill: #5a6069"/>
    <path d="M555.29,273.6q0,5.36-3.35,8.2t-9.53,2.84h-3v11.82h-7V263.23h10.61q6,0,9.19,2.6T555.29,273.6Zm-15.91,5.27h2.32a7.72,7.72,0,0,0,4.86-1.28,4.49,4.49,0,0,0,1.61-3.74,4.61,4.61,0,0,0-1.35-3.66,6.34,6.34,0,0,0-4.24-1.18h-3.2v9.86Z" transform="translate(-11.5 -134.74)" style="fill: #5a6069"/>
    <path d="M581.9,296.46l-2.41-7.91H567.38L565,296.46h-7.59L569.1,263.1h8.61l11.77,33.36H581.9Zm-4.09-13.82q-3.34-10.75-3.76-12.16t-0.6-2.23q-0.75,2.91-4.3,14.39h8.66Z" transform="translate(-11.5 -134.74)" style="fill: #5a6069"/>
    <path d="M620.9,296.46h-7V282.12H600.72v14.34h-7V263.23h7v13h13.16v-13h7v33.23Z" transform="translate(-11.5 -134.74)" style="fill: #5a6069"/>
    <path d="M656.51,296.46h-7V282.12H636.33v14.34h-7V263.23h7v13h13.16v-13h7v33.23Z" transform="translate(-11.5 -134.74)" style="fill: #5a6069"/>
    <path d="M687.63,286.07q0,5.18-3.44,7.78T674,296.46H664.9V263.23h7V276h2.27q6.39,0,9.9,2.65A8.78,8.78,0,0,1,687.63,286.07Zm-15.68,4.61h1.84a8.9,8.9,0,0,0,5.09-1.15,4,4,0,0,0,1.61-3.47,3.64,3.64,0,0,0-1.56-3.32q-1.56-1-5.47-1h-1.52v8.93Zm26.75,5.77h-7V263.23h7v33.23Z" transform="translate(-11.5 -134.74)" style="fill: #5a6069"/>
    <path d="M733.92,296.46h-8l-7.73-12.57-7.73,12.57h-7.55l11-17.14-10.32-16.09h7.77l7.16,12,7-12h7.59l-10.43,16.48Z" transform="translate(-11.5 -134.74)" style="fill: #5a6069"/>
    <path d="M761.37,283.71l-7.77,12.75h-7.82l9.45-14.61a8.85,8.85,0,0,1-4.32-3.51,10.27,10.27,0,0,1-1.5-5.6,8.32,8.32,0,0,1,3.24-7q3.24-2.47,9.31-2.47h10.82v33.23h-7V283.71h-4.36Zm4.36-14.7h-3.48a7.72,7.72,0,0,0-4.23,1,3.58,3.58,0,0,0-1.5,3.25,4.38,4.38,0,0,0,1.45,3.48,6.62,6.62,0,0,0,4.45,1.27h3.3v-9Z" transform="translate(-11.5 -134.74)" style="fill: #5a6069"/>
    <path d="M804.1,271a6.89,6.89,0,0,1-2.27,5.3,11.25,11.25,0,0,1-6.16,2.66v0.14a12.58,12.58,0,0,1,7,2.52,6.73,6.73,0,0,1,2.44,5.39,8.45,8.45,0,0,1-3.72,7.25q-3.72,2.66-10.28,2.66a31.85,31.85,0,0,1-11.75-1.8v-5.91a21.39,21.39,0,0,0,5,1.6,27.28,27.28,0,0,0,5.37.58q8.39,0,8.39-4.89,0-2.2-2.69-3.39a20.7,20.7,0,0,0-8-1.18h-3.11v-5.5h2.8a21.55,21.55,0,0,0,7.68-1,3.42,3.42,0,0,0,2.41-3.32,3.12,3.12,0,0,0-1.51-2.72,8.22,8.22,0,0,0-4.53-1,16.94,16.94,0,0,0-9,2.7l-3.07-4.7a20.82,20.82,0,0,1,6-2.76,26.64,26.64,0,0,1,7.07-.87,14.83,14.83,0,0,1,8.67,2.27A7,7,0,0,1,804.1,271Z" transform="translate(-11.5 -134.74)" style="fill: #5a6069"/>
    <path d="M834,286.07q0,5.18-3.44,7.78t-10.19,2.6h-9.09V263.23h7V276h2.27q6.39,0,9.9,2.65A8.78,8.78,0,0,1,834,286.07Zm-15.68,4.61h1.84a8.9,8.9,0,0,0,5.09-1.15,4,4,0,0,0,1.61-3.47,3.64,3.64,0,0,0-1.56-3.32q-1.56-1-5.47-1h-1.52v8.93Zm26.75,5.77h-7V263.23h7v33.23Z" transform="translate(-11.5 -134.74)" style="fill: #5a6069"/>
    <path d="M880.56,296.46h-8l-12-16.84v16.84h-7V263.23h7v16.09l11.91-16.09h7.5l-12.11,16Z" transform="translate(-11.5 -134.74)" style="fill: #5a6069"/>
    <path d="M914.9,279.8q0,8.25-4.09,12.68t-11.73,4.43q-7.64,0-11.73-4.43t-4.09-12.73q0-8.29,4.1-12.67t11.76-4.37q7.66,0,11.72,4.41T914.9,279.8Zm-24.25,0q0,5.57,2.11,8.39a7.39,7.39,0,0,0,6.32,2.82q8.43,0,8.43-11.2t-8.39-11.23a7.44,7.44,0,0,0-6.34,2.83Q890.65,274.23,890.65,279.8Z" transform="translate(-11.5 -134.74)" style="fill: #5a6069"/>
    <path d="M921.78,263.23h10.34q7.07,0,10.26,2t3.19,6.4a8.06,8.06,0,0,1-1.4,4.89,5.58,5.58,0,0,1-3.72,2.3v0.23a7.32,7.32,0,0,1,4.56,2.64,8.58,8.58,0,0,1,1.4,5.14,8.46,8.46,0,0,1-3.28,7.09q-3.29,2.55-8.92,2.55H921.78V263.23Zm7,13.16h4.09a7.48,7.48,0,0,0,4.15-.89,3.31,3.31,0,0,0,1.28-2.93,2.93,2.93,0,0,0-1.4-2.74,9,9,0,0,0-4.42-.83h-3.7v7.39Zm0,5.59v8.66h4.59a6.81,6.81,0,0,0,4.3-1.11,4.11,4.11,0,0,0,1.39-3.41q0-4.14-5.91-4.14h-4.36Z" transform="translate(-11.5 -134.74)" style="fill: #5a6069"/>
  </g>
  <g>
    <path d="M328.45,338.47a7.18,7.18,0,0,0-6.16,3q-2.18,3-2.18,8.33,0,11.11,8.34,11.11a26.35,26.35,0,0,0,8.48-1.75v5.91a23.54,23.54,0,0,1-9.14,1.7q-7.25,0-11.09-4.4t-3.84-12.62a20.61,20.61,0,0,1,1.89-9.08,13.63,13.63,0,0,1,5.42-6,16,16,0,0,1,8.28-2.08,22.36,22.36,0,0,1,9.73,2.34l-2.27,5.73a37.73,37.73,0,0,0-3.75-1.55A11.2,11.2,0,0,0,328.45,338.47Z" transform="translate(-11.5 -134.74)" style="fill: #9f2d20"/>
    <path d="M370.29,366.31h-7V339H351v27.36h-7V333.09h26.3v33.23Z" transform="translate(-11.5 -134.74)" style="fill: #9f2d20"/>
    <path d="M385.72,345.84h2.77q6.5,0,10,2.64a8.74,8.74,0,0,1,3.55,7.45q0,10.39-13.73,10.39h-9.68V333.09h21v5.82h-14v6.93Zm0,14.7h2.36a9.34,9.34,0,0,0,5.23-1.15,3.93,3.93,0,0,0,1.66-3.47,3.56,3.56,0,0,0-1.68-3.31q-1.68-1-5.77-1h-1.8v8.93Z" transform="translate(-11.5 -134.74)" style="fill: #9f2d20"/>
    <path d="M429.38,333.09v5.82h-14v27.41h-7V333.09h21Z" transform="translate(-11.5 -134.74)" style="fill: #9f2d20"/>
    <path d="M460.7,333.09l-10.27,23.5a25.54,25.54,0,0,1-3.62,6.36,10.57,10.57,0,0,1-4,2.87,15,15,0,0,1-5.64.94,19.72,19.72,0,0,1-5.3-.68v-6a13.2,13.2,0,0,0,5,.82,4.92,4.92,0,0,0,3-.87,6.4,6.4,0,0,0,1.93-3l-11.5-23.86h7.45l8.18,18.52h0.23l0.41-1.14,6.86-17.39h7.25Z" transform="translate(-11.5 -134.74)" style="fill: #9f2d20"/>
  </g>
  <g id="globe">
    <g style="clip-path: url(#clip-path)">
      <g>
        <path d="M205.87,407.21C132.32,436.56,48.11,401,20.07,324.32a141.4,141.4,0,1,1,266-95.95C311.52,298.59,277.71,377.8,205.87,407.21Zm-101-258.52c-72.81,29.7-103.21,105.89-81,170.95,12.8,37.44,37.77,64.62,74,80.72,32.35,14.39,65.84,15.89,99.3,4.29,37.2-12.89,64.12-37.79,80.19-73.73,14.27-31.91,15.93-65,4.73-98.06-13-38.2-38.36-65.75-75.55-81.75C172.11,136.3,137.23,136.35,104.9,148.69Z" transform="translate(-11.5 -134.74)" style="fill: #9f2d20"/>
        <path d="M140.27,244.52q3.36,8.37,6.72,16.75c1,2.38.83,2.86-1.52,3.67-8.64,3-17.3,5.89-26,8.79-3.32,1.11-6.69,2.08-10,3.18-2.37.79-3.12,0.61-3.86-1.7-2.24-7-4.44-13.92-6.49-20.94-1.29-4.44-2.25-9-3.43-13.44a2.27,2.27,0,0,1,1.66-3.16q16-5.77,32-11.64c2.93-1.07,3.1-1,4.28,1.91q3.34,8.28,6.66,16.57h0Z" transform="translate(-11.5 -134.74)" style="fill: #9f2d20"/>
        <path d="M157.36,283.8q-3.19-7.93-6.37-15.87c-1-2.58-.93-2.78,1.73-3.86,4.3-1.74,8.63-3.39,12.89-5.2,7.6-3.23,15.15-6.57,22.74-9.84,2.62-1.13,3.13-1,4.19,1.52,2,4.85,3.83,9.78,5.71,14.68,1,2.57,1.93,5.16,2.95,7.72a2.75,2.75,0,0,1-.31,3.14,2.62,2.62,0,0,0-.57,1.73c0.35,4.45-2.32,7.2-5.44,9.61-1.67,1.29-3.61,2.21-4.46,4.38a2.93,2.93,0,0,1-1.6,1.2c-7.19,2.93-14.41,5.79-21.6,8.72-1.74.71-2.67,0.14-3.32-1.52-2.15-5.48-4.37-10.93-6.57-16.4h0Z" transform="translate(-11.5 -134.74)" style="fill: #9f2d20"/>
        <path d="M163.48,219.67c1.23,1.44,2.68,1.37,4.17,1.06,1.24-.26,1.67-1,1.67-2.31a2.09,2.09,0,0,1,1.64-1.15,23.59,23.59,0,0,1,5.15,1,3.75,3.75,0,0,1,1.8,1.73c1.65,2.94,3.29,5.9,4.75,8.95,2.37,5,4.58,10,6.89,15,0.73,1.57.37,2.58-1.23,3.29-2.86,1.27-5.66,2.66-8.51,3.95-4.68,2.11-9.34,4.27-14.09,6.22s-9.35,3.58-14,5.36c-1.76.67-2.8,0.08-3.46-1.68q-6.59-17.39-13.27-34.75c-0.47-1.22-.42-2.28.9-2.83,4.79-2,9.6-4,14.41-5.94,0.14-.06.34,0.06,0,0a45.08,45.08,0,0,0,.26,4.85,1.88,1.88,0,0,0,1.36,1.22,2,2,0,0,0,1.49-1.12c0.51-1.57.93-3.09,2.56-3.94a1.79,1.79,0,0,0-.12-1.4c-0.79-1.26-.48-2.18.77-2.76,2.73-1.25,5.5-2.43,8.26-3.6a3,3,0,0,1,1.64-.29,1.34,1.34,0,0,1,.84,2.49c-0.34.41-1,.51-1.39,0.92a1.52,1.52,0,0,0-.26,1.35c1.83,2.78,1.59,3.42-1.68,4.07A3.09,3.09,0,0,0,163.48,219.67Z" transform="translate(-11.5 -134.74)" style="fill: #9f2d20"/>
        <path d="M171.36,323.68c2.2,5.46,4.41,10.92,6.58,16.39,0.9,2.27.71,2.89-1.62,3.66-7.19,2.36-14.41,4.6-21.62,6.91-3.21,1-6.43,2.06-9.61,3.2-1.37.49-2.33,0.44-3.15-1-2.27-3.81-4.78-7.49-6.92-11.37-3.63-6.55-7-13.22-10.57-19.82-1.09-2-.87-3,1.27-3.74,8.56-3,17.14-6,25.71-9,3.37-1.17,6.75-2.31,10.09-3.58,1.58-.6,2.44-0.21,3.05,1.33C166.81,312.42,169.1,318,171.36,323.68Z" transform="translate(-11.5 -134.74)" style="fill: #9f2d20"/>
        <path d="M282.55,241.86c0.89,3.93,2,7.74,2.6,11.62a141.4,141.4,0,0,1,1.75,27.89c0,0.25,0,.5,0,0.75,0.17,3.38-1.37,5.61-4.1,7.63A315,315,0,0,1,256,307.43c-2.26,1.34-2.62,1.09-2.87-1.59-0.72-7.85-1.33-15.71-2.31-23.53a117.47,117.47,0,0,0-2.61-12.47c-0.82-3.47-.55-4.09,2.49-5.9,10.49-6.28,20.57-13.12,29.23-21.85C281.49,240.52,282,240.54,282.55,241.86Z" transform="translate(-11.5 -134.74)" style="fill: #9f2d20"/>
        <path d="M155.72,284.73c2.15,5.35,4.31,10.69,6.44,16,0.88,2.22.71,2.71-1.55,3.51-9.75,3.43-19.52,6.8-29.28,10.21-1.77.62-3.52,1.32-5.27,2-3.14,1.22-5.66-.68-5.31-4.12,0.24-2.3.6-4.6,1.07-6.87a8.61,8.61,0,0,0-.48-6,1.66,1.66,0,0,1-.14-0.35,29.15,29.15,0,0,0-12.44-17.4c-2.23-1.49-2-2.62.71-3.46,4.29-1.36,8.65-2.53,13-3.86,4.66-1.44,9.3-3,13.93-4.49,3.45-1.13,6.9-2.25,10.32-3.48,1.64-.59,2.42,0,3,1.48,2.18,5.54,4.42,11.05,6.64,16.57Z" transform="translate(-11.5 -134.74)" style="fill: #9f2d20"/>
        <path d="M136.49,356.57c-4.19,1.08-9.53,2.45-14.85,3.84-3.92,1-7.84,2.08-11.76,3.11a57,57,0,0,1-5.81,1.43,3.13,3.13,0,0,1-2.47-.81c-3-3.59-5.94-7.26-8.74-11a5,5,0,0,1-.62-3,17.82,17.82,0,0,1,.75-4.24c1.15-3.84-.45-7.25-1.49-10.77s-0.9-3.45,2.33-4.92a21.36,21.36,0,0,0,2.84-2A8.72,8.72,0,0,1,98.72,327c5.1-1.67,10.22-3.27,15.34-4.9,2-.64,4.06-1.27,6.08-1.93a2,2,0,0,1,2.75,1.21c2.39,4.88,4.65,9.84,7.25,14.61,2.75,5,5.83,9.9,8.76,14.84,0.06,0.11.15,0.2,0.22,0.3C141.13,354.1,140.91,354.82,136.49,356.57Z" transform="translate(-11.5 -134.74)" style="fill: #9f2d20"/>
        <path d="M170.31,391.69c-7.26,2.05-14.26,4.19-21.36,5.92-1.69.41-3.87-.22-5.56-1-14.89-6.52-27.3-16.42-38.19-28.34a6.16,6.16,0,0,1-.76-1.58,11.51,11.51,0,0,1,1.48-.62c3.62-1,7.25-1.91,10.88-2.86q8.08-2.12,16.15-4.25c2.59-.69,5.19-1.38,7.76-2.13a2,2,0,0,1,2.56,1,169.76,169.76,0,0,0,18,23.05c2.83,3,6.08,5.58,9.11,8.39a2.54,2.54,0,0,1,.9,1.48A2.34,2.34,0,0,1,170.31,391.69Z" transform="translate(-11.5 -134.74)" style="fill: #9f2d20"/>
        <path d="M182.13,351.81q5.78,14.38,11.55,28.75c1,2.42.8,2.94-1.61,3.82-5.17,1.89-10.38,3.67-15.57,5.52a3.59,3.59,0,0,1-3.66-.7,107.53,107.53,0,0,1-21-22.06c-2.25-3.08-4.53-6.13-6.73-9.25-1.23-1.74-.81-2.37,1.28-2.91,2.72-.7,5.41-1.55,8.07-2.44q10.85-3.64,21.67-7.38c3.14-1.1,3.48-1,4.74,2.11l1.75,4.36Z" transform="translate(-11.5 -134.74)" style="fill: #9f2d20"/>
        <path d="M242.75,358.78a12.71,12.71,0,0,0,1.75-2.41,112.86,112.86,0,0,0,8.6-43,3.76,3.76,0,0,1,1.89-3.59,282.88,282.88,0,0,0,28.66-18.89,7.57,7.57,0,0,1,2.14-.77,12.81,12.81,0,0,1,.12,2.15,127.89,127.89,0,0,1-5.37,24.56,115.16,115.16,0,0,1-12.82,27.93c-1.26,1.95-3.85,3.08-5.92,4.44q-5.18,3.4-10.48,6.59c-2.37,1.42-4.85,2.65-7.28,4Z" transform="translate(-11.5 -134.74)" style="fill: #9f2d20"/>
        <path d="M125.46,207.62c1.82,4.53,3.61,9.07,5.48,13.58,0.66,1.59.39,2.58-1.32,3.2Q113.29,230.31,97,236.3c-1.38.5-2.13,0.17-2.38-1.33-1-6-2.18-12-3-18.1-0.6-4.26-.72-8.59-1.15-12.88a2.52,2.52,0,0,1,2-2.94c5.66-2,11.3-4.08,17-6.1,2.59-.92,5.24-1.7,7.82-2.68,1.76-.67,2.66-0.1,3.31,1.56,1.77,4.55,3.62,9.07,5.45,13.6Z" transform="translate(-11.5 -134.74)" style="fill: #9f2d20"/>
        <path d="M237.53,239c0.42,1.32,1.08,3.16,1.55,5a5.23,5.23,0,0,1-.36,2,15.86,15.86,0,0,1-2.18-.56,2.34,2.34,0,0,1-.93-0.91,4,4,0,0,0-5.5-1.59,11.65,11.65,0,0,0-1.59,1.07,12.75,12.75,0,0,0,1.16,1.57c1,1,2.1,1.77,3,2.8,1.52,1.79,1.25,3-.74,4.29-2.27,1.49-1.9,1.35-1,3.76,1.13,3.09,2.34,6.42.42,9.72a1.91,1.91,0,0,1-1.42.93c-1.44-.32-2.11.56-2.76,1.48a1.87,1.87,0,0,1-2.89.6c-0.63-.4-1.34-0.69-2-1.08-4-2.43-7.8-1.74-10.35,2.11-1.78,2.69-4.6,3.34-7.34,4.12a2.62,2.62,0,0,1-2-1.42c-3.12-8.06-6.11-16.17-9.16-24.26a1.81,1.81,0,0,1,1-2.6c4.72-2.46,9.4-5,14.09-7.5,1.39-.74,2.35-0.41,3.07,1a13.3,13.3,0,0,0,1.66,2.46,1.27,1.27,0,0,0,1.15.15,1.44,1.44,0,0,0,.34-1,2.54,2.54,0,0,0-.16-0.73c-0.81-4.18-.61-4.66,3-6.77q4.45-2.61,9-5.12a10.79,10.79,0,0,1,2.78-1.09c2.14-.49,3.07.08,4,2.1C234.57,232.53,235.94,235.48,237.53,239Z" transform="translate(-11.5 -134.74)" style="fill: #9f2d20"/>
        <path d="M58.54,234.81c-1-.84-2-1.62-3-2.53a2.49,2.49,0,0,1-.91-1.62c1-6.17,2-12.33,3.22-18.47a2.83,2.83,0,0,1,1.84-1.51c5.23-1.48,10.5-2.82,15.75-4.27,3.79-1,7.55-2.19,11.32-3.31,1.48-.44,2,0.11,2.16,1.59,0.65,6.72,1.27,13.45,2.1,20.14,0.45,3.65,1.26,7.25,2,10.86,0.33,1.61-.34,2.34-1.78,2.71a25.84,25.84,0,0,0-3.6,1.05,2.87,2.87,0,0,1-3.88-1.19,3,3,0,0,0-1.72-1.17c-1.71-.28-2.27.47-1.79,2.17,0.23,0.83.79,1.76-.48,2.19s-2.32.28-2.8-1.08c-0.56-1.59-1-3.23-1.48-4.83a6.49,6.49,0,0,0-.87-1.86,3.09,3.09,0,0,0-1.2-.59,11.22,11.22,0,0,0-.34,1.16,0.78,0.78,0,0,0,.15.53c1.92,2.62.47,5.29-.05,7.87a3.66,3.66,0,0,1-2.13,2.11c-3,1.12-6,2.07-9.11,2.91a3.24,3.24,0,0,1-2.32-.67,10.29,10.29,0,0,1-1.43-1.94,12.77,12.77,0,0,0-1.38-1.25,16.61,16.61,0,0,0-.36,1.83,5.42,5.42,0,0,1,0,1.63,2.18,2.18,0,0,1-1.35,1,1.56,1.56,0,0,1-1-1.08,27,27,0,0,1,0-5.24,2.45,2.45,0,0,1,1.71-1.51c3.07-.47,3.79-1.62,2.62-4.62l-0.28-.7Z" transform="translate(-11.5 -134.74)" style="fill: #9f2d20"/>
        <path d="M258.51,227.78c0-3.49-1.48-7.09,1.12-10.68-2.85.33-3.33-.8-3.31-2.69,0-1.14-.73-2.27-0.83-3.43a3.73,3.73,0,0,1,.55-2.69c2.18-2.06,4.54-3.92,6.9-5.78,1.17-.92,2.05-0.09,2.62.86,2.23,3.69,4.57,7.33,6.51,11.17,2.4,4.74,4.56,9.61,6.62,14.52a41.56,41.56,0,0,1,2.3,7.73,3.74,3.74,0,0,1-1.08,2.94c-4.42,4-8.78,8.21-13.55,11.83-5.27,4-10.94,7.45-16.47,11.09-2.27,1.49-3.05,1-3.69-1.63s-1.49-5.56-2.4-8.29a2.93,2.93,0,0,1,.88-3.51c2.91-2.66,5.84-5.31,8.57-8.15a10.83,10.83,0,0,0,1.78-3.76c0.53-1.43-.47-2.4-1-3.63a12.93,12.93,0,0,1-.72-6.73,15.21,15.21,0,0,0-.8-7.3,21.59,21.59,0,0,1-.66-6.81c0-.69,1.17-1.36,1.8-2a7.2,7.2,0,0,1,1.15,2c0.83,4.54,1.53,9.11,2.31,13.66a6.72,6.72,0,0,0,.51,1.3Z" transform="translate(-11.5 -134.74)" style="fill: #9f2d20"/>
        <path d="M66.93,248.14a4.44,4.44,0,0,1,1-.68c3.34-1,6.71-2,10-3,4.35-1.39,8.68-2.85,13-4.31,2.48-.83,2.78-0.6,3.47,2q2.92,10.85,6,21.66c1.14,4,2.4,8,3.59,12,0.32,1.09.7,2.2-.76,2.88a2.3,2.3,0,0,1-3.27-.85c-1.45-2.57-3.83-3.93-6.34-5a9.83,9.83,0,0,0-3.36-.3,1.33,1.33,0,0,0-.7.26c-4.1,2.61-8.69,2.68-13.24,2.24-3-.29-5.3,1.19-7.71,2.42a2.53,2.53,0,0,0-.73,2.06c0.11,1.3.59,2.55,0.83,3.85,0.11,0.59.25,1.53-.06,1.79a25.79,25.79,0,0,1-4.79,3.39c-1.33.66-2.58,0-3-1.59-0.9-3.31-2.14-6.59-2.5-10-0.15-1.42,1.25-3.49,2.55-4.47,2.22-1.68,3-3.91,3.72-6.31,0.78-2.56.88-2.46,3.53-2.45a16.6,16.6,0,0,0,5-1.07,2.66,2.66,0,0,1,3.32.8c1.49,1.77,3.13,3.41,4.69,5.13,2.31,2.54,4.69,2.75,7.6.81a6.32,6.32,0,0,1,2.61-.87c1.6-.21,2.16-1,1.53-2.44-1.27-2.86-2.59-5.69-4-8.46a2.12,2.12,0,0,0-1.85-.8A22,22,0,0,0,82,258.62c-1.42.77-2.06,0.41-2.57-.9-0.61-1.56-1.36-3-.66-4.84,0.56-1.5-.7-2.51-2.32-1.89-3.82,1.47-6.48-1.11-9.56-2.24v-0.6Z" transform="translate(-11.5 -134.74)" style="fill: #9f2d20"/>
        <path d="M98.13,155.28c-1.48,3.24-3,6.2-4.19,9.25-3.93,9.73-5,20-5.22,30.36-0.13,6.89.76,5.51-5.3,7.65S70.82,206.21,64.5,208c-1,.27-1.94.47-2.92,0.72-2.17.54-2.82,0-2.09-2.08,1.26-3.54,2.55-7.08,4.09-10.5a101.16,101.16,0,0,1,29.12-37.45c1.46-1.17,3-2.2,4.57-3.26A2.42,2.42,0,0,1,98.13,155.28Z" transform="translate(-11.5 -134.74)" style="fill: #9f2d20"/>
        <path d="M151.16,186.43a1.29,1.29,0,0,0-.58-0.2c-2.85,1.71-5-.26-7.25-1.45-1.54-.82-1.42-2.19.15-3a46.91,46.91,0,0,1,4.81-2.13,2.92,2.92,0,0,1,2.13,0,16.15,16.15,0,0,1,6.69,6c1.07,1.86,2.33,3.62,3.61,5.59-1.53-.06-2.7,0-3.85-0.16-2.14-.23-3.29,1.29-4.5,2.59a1.82,1.82,0,0,0,.45,1.61c1.13,0.94,1.54,1.94.86,3.28s-1.8,1-2.94.81c-2.39-.48-3-0.06-2.86,2.4,0.06,1.42.63,2.81,0.71,4.23a7.76,7.76,0,0,1-.48,3.5c-0.77,1.69-.5,2.52,1.44,2.84,1.51,0.24,3,.41,4.54.6l0.11,0.71c-1.06.43-2.13,0.84-3.19,1.29a22.88,22.88,0,0,0-2.2,1c-0.82.45-1.54,1.1-2.38,1.46q-5.18,2.23-10.42,4.32c-2.15.87-2.61,0.68-3.45-1.4q-5.45-13.51-10.84-27c-0.83-2.07-.59-2.58,1.5-3.44q4.26-1.76,8.55-3.42c1.95-.75,2.75-0.36,3,1.68a2.93,2.93,0,0,0,2.08,2.57c2.75,1.21,5.44,2.55,8.21,3.69a2.25,2.25,0,0,0,2.05-.3c1.46-2.26,2.72-4.64,4-7A1.78,1.78,0,0,0,151.16,186.43Z" transform="translate(-11.5 -134.74)" style="fill: #9f2d20"/>
        <path d="M142.68,398.78a8.33,8.33,0,0,1-1.55.61c-8.63,1.46-17.26,2.92-25.91,4.31a6.72,6.72,0,0,1-3.14-.17c-4-1.39-8-2.93-12-4.42a2.83,2.83,0,0,1-1.94-2.91c0-6-.09-12,0-18,0-1.49.39-3,.52-4.47a14.31,14.31,0,0,0,0-3.16c-0.13-.9-1.31-1.87.08-2.59s2.83-1.22,4.17.11c0.8,0.79,1.61,1.58,2.37,2.42a120.23,120.23,0,0,0,32.63,25.36c1.49,0.79,3,1.51,4.52,2.28A2.22,2.22,0,0,1,142.68,398.78Z" transform="translate(-11.5 -134.74)" style="fill: #9f2d20"/>
        <path d="M188.74,363.22q-3.37-8.38-6.73-16.75c-0.94-2.36-.79-2.66,1.59-3.63,0.64-.26,1.3-0.46,1.92-0.77a3,3,0,0,1,3.78.57,4.94,4.94,0,0,0,4.55,1.49,12.17,12.17,0,0,1,5,.74,4.32,4.32,0,0,1,1.85,1.94c2,3.23,3.57,6.77,5.94,9.67,1.69,2.07,3.77,4.45,7.19,4a1.87,1.87,0,0,1,1.36,1.22c-0.08,1.58.64,2.18,2.07,2.26,1.71,0.09,2.16,1,2,2.63-0.72,7.37.35,5.89-6.25,8.76-4.76,2.08-9.48,4.28-14.25,6.35-2.07.9-2.55,0.64-3.41-1.48-2.29-5.63-4.54-11.28-6.81-16.92Z" transform="translate(-11.5 -134.74)" style="fill: #9f2d20"/>
        <path d="M104.4,168.59c2.49,1.44,4.71,2.65,6.84,4a4.14,4.14,0,0,1,1.52,1.79c1.84,4.39,3.56,8.83,5.36,13.24,0.61,1.5.14,2.37-1.33,2.9q-8.74,3.16-17.46,6.37c-2.29.84-4.55,1.78-6.84,2.63-1.82.67-2.41,0.34-2.39-1.5,0.12-12.41,1.08-24.7,6.54-36.11a66.62,66.62,0,0,1,5.46-8.73c1-1.44,1.68-1.29,2.35.34q2.09,5,4,10.13c0.58,1.53-.36,3.09-2.33,4.11C105.7,168,105.21,168.21,104.4,168.59Z" transform="translate(-11.5 -134.74)" style="fill: #9f2d20"/>
        <path d="M233.06,319.53a7.87,7.87,0,0,1,.22-1.38c3-7.07,4-14.71,6-22a3.2,3.2,0,0,0-1.22-3.5c-1.38-1.2-2.1-2.39-.66-4.13,0.89-1.08-.28-1.7-1-2.22-2.36-1.75-4.78-3.43-7.17-5.14a16.75,16.75,0,0,1-1.66-1.22c-1.27-1.17-1.22-2.25.15-3.26a9.91,9.91,0,0,1,1.3-.75c4.91-2.59,9.83-5.17,14.72-7.78,1.54-.82,2.3-0.68,2.81,1.08a55.5,55.5,0,0,1,2,8.56c1.14,9.3,2,18.64,3.09,28,0.32,2.8-.13,4.73-3.18,6-4.62,2-8.94,4.69-13.4,7.06A16.45,16.45,0,0,1,233.06,319.53Z" transform="translate(-11.5 -134.74)" style="fill: #9f2d20"/>
        <path d="M118.31,146.83c1.95-.54,3.87-1.19,5.84-1.61a139,139,0,0,1,28.29-3.09A136,136,0,0,1,192.23,148c1.64,0.49,2.17,1.37,1.19,2.77a24.33,24.33,0,0,1-4.21,4.74c-2.49,2.08-5.22,3.87-7.89,5.73a4.6,4.6,0,0,1-2,.87c-0.94.09-1.9-.19-1.15-1.51,0.89-1.55,0-1.9-1.29-2-1.12,0-2.26.07-3.38,0a8.1,8.1,0,0,1-2.91-.55,101,101,0,0,0-37.44-10.18c-4.3-.34-8.62-0.34-12.93-0.5-0.6,0-1.2-.08-1.8-0.13Z" transform="translate(-11.5 -134.74)" style="fill: #9f2d20"/>
        <path d="M90.16,158.6c-1.7,1.64-3.39,3.31-5.11,4.93A93.8,93.8,0,0,0,63.74,192.6c-2.29,4.92-4.07,10.08-6.18,15.08a3.91,3.91,0,0,1-1.89,2.09,34,34,0,0,1-16.29,1.43c-2.23-.34-2.73-1.57-1.56-3.5a140.65,140.65,0,0,1,15.53-21.18,137,137,0,0,1,21.48-19.3c3.93-2.86,8.21-5.25,12.37-7.79a18.17,18.17,0,0,1,2.75-1.13Z" transform="translate(-11.5 -134.74)" style="fill: #9f2d20"/>
        <path d="M238.54,362.91c-1.35.44-1.75-.19-1.91-1.25-1-6.62-1.92-13.25-3-19.85-0.55-3.26-1.48-6.45-2.15-9.69-0.49-2.39-.83-4.8-1.21-7.21a2.47,2.47,0,0,1,1.43-2.79l9.16-4.74c3-1.55,6-3,9-4.68,1.35-.75,1.75-0.17,1.77,1,0,1.81,0,3.64-.11,5.44a111.34,111.34,0,0,1-5.55,29.08c-1.48,4.19-3.28,8.27-5.1,12.33C240.4,361.49,239.32,362.13,238.54,362.91Z" transform="translate(-11.5 -134.74)" style="fill: #9f2d20"/>
        <path d="M168.82,161.29c3.08-.73,5.54-0.25,7.58,2-2.85-.87-4.6,1.56-6.95,2a11.43,11.43,0,0,1-3.68,0c-1.75-.23-2.24.18-1.83,1.85,0.89,3.57,0,4.58-3.63,4.08-2.11-.28-4.18-0.9-6.29-1a19.51,19.51,0,0,0-4.09.68c-0.81.13-1.64,0.17-2.46,0.25a4.3,4.3,0,0,0,0-1.8A3,3,0,0,0,146,167.7a8.28,8.28,0,0,1-4.61-2.62c-6.56-6.19-13.68-11.54-22.29-14.62a4.78,4.78,0,0,1-1-.52,2.72,2.72,0,0,1-.42-0.71,21.68,21.68,0,0,1,2.62-.37c16.32-.26,32,2.44,46.94,9.35C168.36,158.75,169.88,159.09,168.82,161.29Z" transform="translate(-11.5 -134.74)" style="fill: #9f2d20"/>
        <path d="M235.46,184.14c-1.75,1.11-2.32.81-2.77-1.69-0.27-1.5,0-3.25-2.11-3.9-0.51-.16-0.45-1.73-1-2.27-2.52-2.43-1.5-4.5.2-6.85,1.44-2,1.48-2.19,3.53-.64a121.15,121.15,0,0,1,18.05,16.35C255,189.3,258.48,193.68,262,198a2.21,2.21,0,0,1-.33,3.56c-1.84,1.5-3.66,3-5.53,4.49a6,6,0,0,1-1.47.61c-0.15-.51-0.32-1-0.45-1.52-0.45-1.73-.9-3.46-1.33-5.19a14.38,14.38,0,0,0-8.33-10.11C241.42,188.33,238.59,186.11,235.46,184.14Z" transform="translate(-11.5 -134.74)" style="fill: #9f2d20"/>
        <path d="M137,173.83c0.64-.2,1.29-0.36,1.91-0.6,1.35-.51,2.65-1.18,4-1.56a7.48,7.48,0,0,1,2.38.13,6.46,6.46,0,0,1-1.51,1.76c-1.43.76-3.09,1.11-4.47,1.94a7.6,7.6,0,0,0-2.83,2.74c-3.53,6.83-1.29,5.34-8.91,8.35-1.86.73-3.79,1.28-5.69,1.94a1.76,1.76,0,0,1-2.53-1.15c-1.53-3.91-3.1-7.8-4.62-11.71-0.51-1.29-.08-1.82,1.3-2.45,3.34-1.52,6.94-.34,10.29-1.36a4.18,4.18,0,0,1,2,.29c0.85,0.22,1.67.54,2.51,0.79,1.75,0.52,3.38,0,3.66-1.23s-1.16-3.58-2.29-4a6.51,6.51,0,0,1-2.41-1.31c-1.28-1.3-1-2.37.63-3.23,3.87-2.05,3.89-2.07,7.34.78,1.3,1.07,2.54,2.23,3.73,3.43,2.08,2.1,1.94,2.69-.7,3.78-0.93.38-1.87,0.72-2.78,1.15a10.38,10.38,0,0,0-1.38.95Z" transform="translate(-11.5 -134.74)" style="fill: #9f2d20"/>
        <path d="M29.68,224.62c1.3-3.15,2.43-6.05,3.7-8.89,0.61-1.36,1.21-3.13,2.33-3.72,0.92-.48,2.62.84,4,0.8q7-.24,14-0.92c2-.19,2.54.11,2.2,2.13-0.89,5.37-1.79,10.74-2.71,16.1-0.38,2.24-3.79,3.33-6.19,1.92s-4.52-2.7-6.64-4.24a13,13,0,0,0-7-2.5A34.65,34.65,0,0,1,29.68,224.62Z" transform="translate(-11.5 -134.74)" style="fill: #9f2d20"/>
        <path d="M34.09,292c-0.82-2.11-.49-2.63,1.58-2.41a5.84,5.84,0,0,0,5-1.71c1.34-1.31,2.64-2.67,3.93-4a1.35,1.35,0,0,0-.3-2.35,11.2,11.2,0,0,0-3.75-1c-2.27-.19-4.59,0-6.85-0.24a4.53,4.53,0,0,0-3.58,1,45.72,45.72,0,0,1-5.54,3.34c-0.82.44-2.06,0.8-2.35-.45-0.21-.93,0-2.66.63-3,2.53-1.32,3.69-3.42,4.4-6,0.32-1.16,1.25-1.12,2.13-.68,1.79,0.9,3,.15,4-1.29,1.38-1.94,2.33-2.09,4.38-.82a12.45,12.45,0,0,1,4.62,4.24A5.76,5.76,0,0,0,47,279.55c1.52,0.12,2.62.78,2.61,2.58a2.06,2.06,0,0,0,.56,1.35,9.45,9.45,0,0,0,1.71,1.09,4.17,4.17,0,0,0,.21-1.94,2.63,2.63,0,0,1,.43-3.13,5.11,5.11,0,0,0,1.17-4.71,7.42,7.42,0,0,1,0-2.6,3.18,3.18,0,0,1,.87-1.11,3.5,3.5,0,0,1,1,1.12c0.46,1.74.7,3.54,1.15,5.29,0.71,2.72,1.54,5.4,2.29,8.11a5.54,5.54,0,0,1,.38,2.37,2.35,2.35,0,0,1-1.33,1.6c-5,1.13-10.12,2.14-15.19,3.14-2,.39-3.94.67-5.92,1C35.45,293.94,34.38,293.44,34.09,292Z" transform="translate(-11.5 -134.74)" style="fill: #9f2d20"/>
        <path d="M180.54,221.76c1.52,0.1,2.55.09,3.55,0.27a11.8,11.8,0,0,1,2.63.82c2.14,0.93,4.1,2.55,6.71,1.41a2.44,2.44,0,0,1,1.35.69,22.77,22.77,0,0,0,3.32,2.31c3,1.34,6.16,2.44,9.22,3.72a6.61,6.61,0,0,1,2.13,1.46c1.58,1.62,1.35,3.43-.6,4.46-4.86,2.59-9.76,5.08-14.64,7.64-1.35.71-2.4,0.49-3.14-.89-0.48-.88-1-1.74-1.41-2.65-2.09-4.68-4.11-9.39-6.26-14.05C182.59,225.17,181.52,223.52,180.54,221.76Z" transform="translate(-11.5 -134.74)" style="fill: #9f2d20"/>
        <path d="M119.07,404.83c2.3-.36,4.13-0.6,5.94-0.95,6.82-1.28,13.61-2.68,20.45-3.83a9.47,9.47,0,0,1,4.35.73,87.81,87.81,0,0,0,31,4.77c1.05,0,2.11.09,3.3,0.15C177.39,411.3,127.2,410.82,119.07,404.83Z" transform="translate(-11.5 -134.74)" style="fill: #9f2d20"/>
        <path d="M198.7,401.54c-7.71,4.37-41.4,2.58-47.79-2.41,1.5-.6,2.87-1.29,4.31-1.71,5-1.44,10-2.66,15-4.23a7.74,7.74,0,0,1,7.21,1,40.6,40.6,0,0,0,19.81,6.91A8.59,8.59,0,0,1,198.7,401.54Z" transform="translate(-11.5 -134.74)" style="fill: #9f2d20"/>
        <path d="M178,298.9c3.43-1.38,6.85-2.79,10.3-4.13,1.84-.72,2.23-0.41,2.25,1.56a2.93,2.93,0,0,0,0,.75c1.07,3.67-1.59,5.42-3.81,7.38-3.56,3.14-7.17,6.23-10.75,9.37-1.18,1-2.26,2.17-3.46,3.17s-2,.67-2.5-0.65q-2-5-3.89-10c-0.63-1.63-.2-2.7,1.55-3.35,3.46-1.29,6.87-2.73,10.31-4.11h0Z" transform="translate(-11.5 -134.74)" style="fill: #9f2d20"/>
        <path d="M176.62,197.52a3.79,3.79,0,0,0,.93.14c1.16-.14,2.17.24,2.18,1.45,0,1-.31,2.36-1,2.75s-2.05.07-3.08-.12a2.06,2.06,0,0,1-.78-1A3.87,3.87,0,0,0,171,198.6a3.63,3.63,0,0,1-3.93-2.19c-0.64-1.28-2-2.19-2.88-3.36a55.42,55.42,0,0,1-3.9-5.45c-0.72-1.21,1.37-4,3-4,2.92-.08,5.8-0.43,8.69-0.78,2.73-.33,5.68,1.08,8.53,1.76a1,1,0,0,1,.64.62c0,2.07,1.19,4.21-.18,6.18s-2.77,3.67-4.16,5.5A2.61,2.61,0,0,0,176.62,197.52Z" transform="translate(-11.5 -134.74)" style="fill: #9f2d20"/>
        <path d="M199.67,392.36c-0.73-2.13-1.45-4.26-2.21-6.39-0.55-1.55,0-2.45,1.49-3,4.49-1.75,9-3.57,13.42-5.4,1.21-.5,2.37-1.13,3.58-1.64a8.8,8.8,0,0,1,1.56-.35,3.55,3.55,0,0,1,.27,1.55c-1.45,4.12-2.71,8.33-4.55,12.27a22,22,0,0,1-7.56,8.45c-2.33,1.64-3.14,1.44-4.2-1.11-0.6-1.45-1.17-2.9-1.75-4.36Z" transform="translate(-11.5 -134.74)" style="fill: #9f2d20"/>
        <path d="M108,157.85c-0.63-1.57-1.3-3.12-1.88-4.71-0.75-2.06-.14-2.95,2.09-3a31.15,31.15,0,0,1,15.66,3.94c2.51,1.37,4.89,3,7.29,4.59a5,5,0,0,1,1,1.25,7.85,7.85,0,0,1-1.5.91,3.27,3.27,0,0,1-1.49,0,13.85,13.85,0,0,0-10.69,2.67c-2.1,1.51-5,.16-7.47.59-0.3.05-.9-1.09-1.2-1.75-0.67-1.48-1.23-3-1.84-4.52Z" transform="translate(-11.5 -134.74)" style="fill: #9f2d20"/>
        <path d="M264,350.56c-0.28.51-.52,1-0.84,1.52a135.86,135.86,0,0,1-20.75,23.69c-1.35,1.24-1.82,1.14-2.58-.55l-0.07-.17c-2.47-5.69-2.51-6.67,1.44-11.5,1.26-1.54,3.49-2.3,5.29-3.39q7.54-4.56,15.1-9.09a14.77,14.77,0,0,1,2.09-.86Z" transform="translate(-11.5 -134.74)" style="fill: #9f2d20"/>
        <path d="M198.19,391.79c0.7,1.74,1.43,3.48,2.1,5.23,0.81,2.12.52,2.56-1.78,2.56A34.64,34.64,0,0,1,183.84,396a65.18,65.18,0,0,1-5.74-3.19,2,2,0,0,1-.92-1.23,1.6,1.6,0,0,1,1-.95c5.17-1.88,10.36-3.71,15.55-5.56a1.6,1.6,0,0,1,2.21,1.13c0.76,1.86,1.5,3.72,2.25,5.58h0Z" transform="translate(-11.5 -134.74)" style="fill: #9f2d20"/>
        <path d="M243.23,255.39c0.66,2.67,1.3,5.35,2,8a2.3,2.3,0,0,1-1.2,2.85q-5.42,3-10.84,5.95c-1.54.83-3.07,1.69-4.67,2.39s-2,.43-2.08-1.31c-0.07-2.44.7-3.21,3.17-3.26a2.37,2.37,0,0,0,1.43-.29c2.11-2,4.71-3.63,4.74-7,0-4.09,3.06-6.54,5.33-9.39a1.65,1.65,0,0,1,1.37.37,5.5,5.5,0,0,1,.65,1.74Z" transform="translate(-11.5 -134.74)" style="fill: #9f2d20"/>
        <path d="M52.71,249.53a3,3,0,0,1-1,1c-2.17.5-4.37,0.95-6.58,1.23A2.12,2.12,0,0,1,43.4,251c-0.82-1.53-2-1.62-3.5-1.45-2,.24-2.64-1.41-3.29-2.78s0.49-2.13,1.47-2.63c1.94-1,2-2.82,2-4.53,0-.51-1-1-1.61-1.52a9.58,9.58,0,0,1-2.23-1.81c-0.56-.89,0-1.72,1.11-1.34a63.07,63.07,0,0,1,6.44,2.56,2.9,2.9,0,0,1,.93,1.73c0.21,0.71.09,1.52,0.33,2.22,0.6,1.75.86,3.85,3.59,3.65,0.44,0,1,.85,1.4,1.41a5.89,5.89,0,0,1,.5,1.56Z" transform="translate(-11.5 -134.74)" style="fill: #9f2d20"/>
        <path d="M213.9,391.39a17.83,17.83,0,0,0,1.52-2.72c1.39-3.94,2.87-7.87,3.92-11.91,0.52-2,1.26-3.31,3.25-4.11,4.21-1.69,4.19-1.75,5.15,2.73a7.18,7.18,0,0,1-1.95,6.29c-3.24,3.54-7,6.6-10.58,9.83a2.45,2.45,0,0,1-1,.27Z" transform="translate(-11.5 -134.74)" style="fill: #9f2d20"/>
        <path d="M41.3,304.91c-0.1.76-.14,1.53-0.32,2.28a12.73,12.73,0,0,0-.16,6.84,4,4,0,0,1-.65,2.76,5.57,5.57,0,0,0-.65,3.9,10.85,10.85,0,0,1-.51,4.54c-0.77,2.56-1.84,5-2.76,7.55-0.39,1.07-.89,1.25-1.75.4-2.34-2.3-2.59-4.57-.74-7.95,0.74-1.34,1.42-2.38.83-4.27-0.49-1.56.3-3.72,1-5.42,1.32-3.3,3-6.47,4.49-9.68a6.55,6.55,0,0,1,.84-1.1Z" transform="translate(-11.5 -134.74)" style="fill: #9f2d20"/>
        <path d="M176.41,332.49c-1-2.61-2.12-5.21-3.12-7.84a4.22,4.22,0,0,1,0-1.55,3.6,3.6,0,0,1,1.41.14c4.13,2.43,7.56,5.44,8.66,10.42a31.84,31.84,0,0,0,1.47,4.43,1.83,1.83,0,0,1-1.05,2.71c-3.07,1.43-3.58,1.26-4.85-1.88q-1.3-3.22-2.59-6.44h0Z" transform="translate(-11.5 -134.74)" style="fill: #9f2d20"/>
        <path d="M52,293.24c-0.66.54-1.35,1-2,1.64a34.12,34.12,0,0,0-3.7,3.81c-0.86,1.14-1.69,1.78-3.12,1.47a61.35,61.35,0,0,1-6-1.35,2.91,2.91,0,0,1-1.6-2,2.41,2.41,0,0,1,1.6-1.63c4.77-.93,9.57-1.69,14.37-2.51Z" transform="translate(-11.5 -134.74)" style="fill: #9f2d20"/>
        <path d="M235.48,228.69a4.26,4.26,0,0,1,1.33.48c2.63,2.4,5.82,4.37,6.33,8.4a11.06,11.06,0,0,0,.92,2.45,2.76,2.76,0,0,1-1.31,3.54,2,2,0,0,1-1.94-.48c-1.92-4.49-3.7-9-5.49-13.58A2.37,2.37,0,0,1,235.48,228.69Z" transform="translate(-11.5 -134.74)" style="fill: #9f2d20"/>
        <path d="M189,158.15c1.89-2.12,3.79-4.07,5.47-6.19,2.11-2.66,2-2.73,5.19-1.47,0.87,0.35,1.74.71,2.58,1.13,1,0.5,1.22,1.26.08,1.72-4.11,1.69-8.26,3.28-12.4,4.88A2.43,2.43,0,0,1,189,158.15Z" transform="translate(-11.5 -134.74)" style="fill: #9f2d20"/>
        <path d="M213.59,394.91c4.12-3.63,8-7,11.81-10.39,0.64-.56,1.25-1.81,2.26-0.64a2.2,2.2,0,0,1-.09,3.22,10.24,10.24,0,0,1-2,1.39q-5.17,3-10.37,6A7.31,7.31,0,0,1,213.59,394.91Z" transform="translate(-11.5 -134.74)" style="fill: #9f2d20"/>
        <path d="M99.91,364.6c-0.26.46-.5,1.3-0.8,1.32a3.82,3.82,0,0,1-2.5-.39,36.23,36.23,0,0,1-3-3.26c-1.24-1.28-.39-2.45.35-3.31,0.93-1.08,1.49.21,2,.77C97.27,361.25,98.48,362.83,99.91,364.6Z" transform="translate(-11.5 -134.74)" style="fill: #9f2d20"/>
        <path d="M224.67,168.66a2.74,2.74,0,0,1,1.16-3.6,2.71,2.71,0,0,1,2.29.16c1.36,0.79,1.24,2.13.5,3.28a4,4,0,0,1-2,1.85C226.07,170.44,225.32,169.26,224.67,168.66Z" transform="translate(-11.5 -134.74)" style="fill: #9f2d20"/>
        <path d="M214.42,233.91l-1-.22a2.9,2.9,0,0,1,.4-1.11c1.15-1.13,2.35-2.2,3.56-3.26a1.77,1.77,0,0,1,1-.5c0.94,0,1.88.08,2.82,0.13a9.27,9.27,0,0,1-1.62,1.89C218,231.91,216.28,232.81,214.42,233.91Z" transform="translate(-11.5 -134.74)" style="fill: #9f2d20"/>
        <path d="M159.36,183.59c-1.3.56-2.87-.31-3.45-2a1.44,1.44,0,0,1,.43-1.31c1.25-.74,4.18-0.12,4.62.93C161.61,182.82,160.16,183,159.36,183.59Z" transform="translate(-11.5 -134.74)" style="fill: #9f2d20"/>
        <path d="M173.77,167.39a48.23,48.23,0,0,1,5-2.32c0.49-.17,1.3.58,2,0.92-0.34.58-.59,1.56-1,1.65-1.82.38-3.69,0.49-5.55,0.7Z" transform="translate(-11.5 -134.74)" style="fill: #9f2d20"/>
        <path d="M221.05,366.29c1.46,0.86,2.62,1.5,3.73,2.21a1.28,1.28,0,0,1,.33.75c-1.2.71-2.37,1.78-3.65,1.95s-0.91-1.32-.86-2.16A23.38,23.38,0,0,1,221.05,366.29Z" transform="translate(-11.5 -134.74)" style="fill: #9f2d20"/>
        <path d="M57.11,271.83c-0.8-2.41-.41-4.1,1-4.33a2.73,2.73,0,0,1,1.65.82c-0.43,1.35-1,2.64-1.58,3.95Z" transform="translate(-11.5 -134.74)" style="fill: #9f2d20"/>
        <path d="M165.56,171.67l4.5-2.16C169.77,172.58,168.41,173.32,165.56,171.67Z" transform="translate(-11.5 -134.74)" style="fill: #9f2d20"/>
        <path d="M117.6,318.42a20.56,20.56,0,0,1,1.34-2.41,1.49,1.49,0,0,1,1.16.13,2.48,2.48,0,0,1,0,1.8,5.23,5.23,0,0,1-2,.86Z" transform="translate(-11.5 -134.74)" style="fill: #9f2d20"/>
        <path d="M52.71,249.53L50.49,248a1.83,1.83,0,0,0,1-2.46,3.07,3.07,0,0,1,.23-2.05C53.09,245.35,52.59,247.49,52.71,249.53Z" transform="translate(-11.5 -134.74)" style="fill: #9f2d20"/>
        <path d="M32.69,333.48A29.5,29.5,0,0,1,34.77,336a2.72,2.72,0,0,1,0,1.33,3,3,0,0,1-1.29-.64,23.13,23.13,0,0,1-1.2-2.85Z" transform="translate(-11.5 -134.74)" style="fill: #9f2d20"/>
        <path d="M57.18,292.78a6.75,6.75,0,0,1-.1-0.71l2.72-1,0.31,1Z" transform="translate(-11.5 -134.74)" style="fill: #9f2d20"/>
        <path d="M181.76,163l3.15-2.26,0.51,0.76-3.29,2Z" transform="translate(-11.5 -134.74)" style="fill: #9f2d20"/>
        <path d="M100.51,324.82l-2.08.23a4,4,0,0,1,0-.94,19.91,19.91,0,0,1,2-.31Z" transform="translate(-11.5 -134.74)" style="fill: #9f2d20"/>
      </g>
    </g>
  </g>
</svg>
