<svg width="53" height="61" viewBox="0 0 53 61" xmlns="http://www.w3.org/2000/svg"><title>SVG logo small</title><g fill="#96989a" fill-rule="evenodd"><path d="M21.372 7.29c.018.045.036.087.054.126.327.693.924 1.364.924 1.364l.01-.008.002.002s.086-.065.26-.164a5.692 5.692 0 0 1 .945-.42c.719-.254 1.676-.335 1.676-.335s-.891-1.24-1.059-3.032c-.095-1.015-.056-1.548-.045-1.579-.06-.003-.12-.009-.181-.009-.677 0-1.298.237-1.788.631l-.036.029a2.847 2.847 0 0 0-.937 2.905c.046.145.11.332.175.49M26.368 7.537c.181.196.363.282.528.282h.043c.165 0 .347-.086.529-.282.4-.387.821-1.042 1.106-1.834.41-1.148.291-2.118-.189-2.578a1.611 1.611 0 0 0-.85-.404 3.632 3.632 0 0 0-.318-.02 1.273 1.273 0 0 0-.31-2.51 1.274 1.274 0 1 0-.313 2.51c-.107.003-.219.01-.293.02a1.618 1.618 0 0 0-.851.404c-.479.461-.599 1.43-.189 2.578.285.792.706 1.447 1.107 1.834M38.546 15.982c.292.463.278 1.043.278 1.043.004.001.59.102.879.391l.052-.053c.395-.487 1.124-1.284 1.334-2.442.171-.943.06-2.264-.139-2.686-.007-.015-.013-.038-.021-.051.189-.22.501-.727 1.365-.727.317 0 .599.086.829.195.379.183.612.424.612.424s-.744 1.325-1.134 1.957c-.2.323-.345.574-.746 1.458-.334.737-.424 1.226-.366 1.753.048.443.283 1.291.385 2.142.195 1.632-.127 2.429-.127 2.429l.019-.013-.007.019s1.935-1.278 3.158-4.131l-.013-.003.001-.003a2.052 2.052 0 0 1-.57-.185 2.954 2.954 0 0 1-.456-.296c-1.082-.828-.838-1.708-.486-2.122.1-.118.204-.232.311-.347.273-.291.567-.583.876-.944.39-.455.532-.91.582-1.312.017-.138.036-.277.036-.42 0-1.2-.582-2.017-1.323-2.426a2.455 2.455 0 0 0-.777-.277c-.83-.143-1.846.169-2.588.674-.282.193-.748.62-.879.942-.162.809.079 1.015.325 1.851.005.017.015.03.02.047.509 1.859.248 2.759-1.43 3.113M30.241 14.321c.218.464.618.913.618.913l.004-.003.059.059s.218-.191.794-.415c.476-.185 1.084-.25 1.084-.25s-.597-.83-.709-2.029c-.065-.695-.036-1.055-.03-1.06l-.013-.001.001-.005a1.53 1.53 0 0 0-.907.145 2.9 2.9 0 0 0-.524.365c-.257.229-.43.486-.497.761a1.811 1.811 0 0 0-.08.952c.006.029.109.375.2.568M32.89 13.092c.258.719.685 1.323 1.015 1.449a.39.39 0 0 0 .145.034h.001c.341-.04.793-.728 1.011-1.571.205-.788.066-1.447-.279-1.726a1.243 1.243 0 0 0-.257-.15 1.423 1.423 0 0 0-.291-.098c-.017-.003-.032-.01-.047-.014a.85.85 0 0 0 .457-.806.852.852 0 0 0-.519-.759.747.747 0 0 0-.32-.058c-.435.02-.773.414-.751.882.016.356.235.65.53.762-.218.057-.41.167-.569.309-.321.309-.401.978-.126 1.746M35.221 14.561s1.017.008 2.033.405c.018.007.031.016.048.025.136-.174.333-.448.465-.728.091-.193.195-.539.2-.568a1.801 1.801 0 0 0-.08-.952c-.067-.275-.24-.532-.497-.761a2.9 2.9 0 0 0-.524-.365l-.007-.003-.005-.003a1.53 1.53 0 0 0-.907-.145c.007.005.036.365-.029 1.06-.113 1.199-.71 2.029-.71 2.029l.016.001-.003.005M28.592 7.855s.957.081 1.676.335a6.344 6.344 0 0 1 .945.42c.175.099.26.164.26.164l.002-.002a.775.775 0 0 0 .011.008s.597-.671.923-1.364l.055-.126c.064-.158.128-.345.174-.49a2.828 2.828 0 0 0-.937-2.905l-.036-.029a2.838 2.838 0 0 0-1.787-.631c-.062 0-.121.006-.182.009.011.031.051.564-.045 1.579-.167 1.792-1.059 3.032-1.059 3.032"/><path d="M29.224 10.611s.112.559.179.81a.37.37 0 0 1 .069.006c.425-.171 1.26-.421 1.26-.7v-.892c0-.162-.163-.314-.452-.446-.588-.275-1.692-.466-2.946-.489l-.728-.002c-1.295.013-2.456.207-3.062.491-.289.132-.458.284-.458.446v.892c0 .279.844.529 1.269.7 0-.003.068-.007.072-.006.068-.251.182-.81.182-.81s-.092-.037-.109-.074c-.052-.112.043-.177.2-.265.157-.086.416-.137.636-.146.134.49.153 1.258.125 1.918-.058 1.323-.308 2.984-1.092 4.113.298.29.627.665.964 1.146.812-1.559.94-3.264 1.008-5.021.031-.773 0-1.678 0-2.298.076-.001.328-.031.579-.031.249 0 .498.03.574.031.001.62-.03 1.525 0 2.298.069 1.789.197 3.524 1.049 5.106.309-.452.612-.816.893-1.103l.059-.082c-.808-1.131-1.062-2.819-1.121-4.159-.028-.66-.009-1.428.125-1.918.22.009.478.06.635.146.158.088.252.153.2.265-.017.037-.11.074-.11.074M9.101 13.79c.31.361.603.653.876.944.107.115.211.229.311.347.353.414.596 1.294-.486 2.122a2.907 2.907 0 0 1-.456.296 2.052 2.052 0 0 1-.57.185l.001.003-.013.003c1.223 2.853 3.158 4.131 3.158 4.131l-.007-.019a.334.334 0 0 1 .019.013s-.322-.797-.127-2.429c.102-.851.337-1.699.385-2.142.058-.527-.032-1.016-.366-1.753-.401-.884-.546-1.135-.746-1.458-.39-.632-1.134-1.957-1.134-1.957s.233-.241.612-.424c.23-.109.512-.195.829-.195.864 0 1.176.507 1.365.727-.008.013-.014.036-.021.051-.199.422-.31 1.743-.139 2.686.21 1.158.939 1.955 1.335 2.442.006.008.051.053.051.053.289-.289.875-.39.879-.391 0 0-.014-.58.278-1.043-1.678-.354-1.939-1.254-1.43-3.113.005-.017.015-.03.02-.047.246-.836.487-1.042.325-1.851-.131-.322-.597-.749-.88-.942-.741-.505-1.757-.817-2.587-.674-.266.046-.53.139-.776.277-.742.409-1.324 1.226-1.324 2.426 0 .143.019.282.036.42.05.402.192.857.582 1.312"/><path d="M20.881 14.625s.608.065 1.084.25c.576.224.794.415.794.415l.059-.059.004.003s.4-.449.618-.913c.091-.193.195-.539.2-.568a1.811 1.811 0 0 0-.08-.952c-.067-.275-.24-.532-.497-.761a2.9 2.9 0 0 0-.524-.365 1.53 1.53 0 0 0-.907-.145l.001.005-.013.001c.007.005.035.365-.03 1.06-.112 1.199-.709 2.029-.709 2.029M19.63 14.575h.001a.39.39 0 0 0 .145-.034c.33-.126.757-.73 1.016-1.449.274-.768.194-1.437-.127-1.746a1.378 1.378 0 0 0-.569-.309.85.85 0 0 0 .531-.762c.021-.468-.317-.862-.752-.882a.747.747 0 0 0-.32.058.852.852 0 0 0-.519.759.85.85 0 0 0 .457.806c-.015.004-.03.011-.046.014-.103.022-.2.056-.292.098-.092.04-.178.09-.257.15-.345.279-.484.938-.279 1.726.219.843.67 1.531 1.011 1.571M15.914 14.263c.132.28.329.554.466.728.016-.009.029-.018.047-.025 1.016-.397 2.033-.405 2.033-.405l-.003-.005.016-.001s-.597-.83-.71-2.029c-.065-.695-.036-1.055-.029-1.06a1.53 1.53 0 0 0-.907.145l-.005.003a2.9 2.9 0 0 0-.531.368c-.257.229-.43.486-.497.761a1.811 1.811 0 0 0-.08.952c.005.029.109.375.2.568M19.542 21.953a.15.15 0 0 0 .062-.019.148.148 0 0 0 .088-.143.15.15 0 0 0-.093-.127c-.541-.213-1.023-.489-1.777-.415-.669.067-1.317.537-1.659.857-.085.08-.559.498-.6.531a2.162 2.162 0 0 1-.571.315c-.374.146-.825.181-1.29.152a4.7 4.7 0 0 0-.134-.013l-.02-.002c-.013-.001-.025.002-.038.004-.004.001-.007.005-.011.006h-.001a.143.143 0 0 0-.121.128c-.005.052.018.1.057.13l.006.003c.062.046.132.079.198.118l.013.007c.102.06.211.111.324.156.083.031.166.064.252.085l.043.013c.325.084.672.108 1.005.051.317-.063.561-.232.838-.408.213-.134.532-.469.903-.733.281-.2.638-.315.996-.424a7.303 7.303 0 0 1 1.53-.272"/><path d="M13.638 20.49c.021.093.043.179.065.262.128.477.278.817.412 1.045l.009-.012.003.006a3.77 3.77 0 0 1 1.862-1.348 3.76 3.76 0 0 1 1.173-.193c.02 0 .039.002.058.003.816.012 1.519.284 2.132.735.272.2.562.471.802.758a.867.867 0 0 1 .082 1.01c-.304.487-.82.763-1.044.865-.305.137-.672.2-1.031.2-.633 0-1.083-.243-1.086-.24v.002l-.003-.001c-.002.003-.007.002-.009.006-.023.03-.016.076.101.193.146.146 1.485.947 2.912-.02.079-.054.351-.255.593-.566a1.522 1.522 0 0 0 .035-1.799 5.013 5.013 0 0 0-.361-.464c-.391-.443-1.514-1.406-2.467-1.667-1.625-.447-2.084-.154-2.524-.206-.603-.071-.46-.414-.056-.648.127-.075.241-.188.275-.295.034-.107-.011-.209-.199-.259-.032-.007-.065-.022-.097-.022-1.765 0-1.818 1.856-1.637 2.655M34.144 21.953a.145.145 0 0 1-.062-.019.146.146 0 0 1-.088-.143.15.15 0 0 1 .093-.127c.541-.213 1.022-.489 1.777-.415.669.067 1.317.537 1.659.857.085.08.558.498.6.531.177.126.359.245.571.315.373.146.825.181 1.29.152l.133-.013.021-.002c.013-.001.025.002.037.004.005.001.008.005.012.006h.001a.143.143 0 0 1 .121.128.146.146 0 0 1-.057.13l-.006.003c-.062.046-.132.079-.198.118l-.013.007c-.102.06-.212.111-.325.156-.082.031-.165.064-.251.085l-.044.013a2.411 2.411 0 0 1-1.004.051c-.317-.063-.562-.232-.838-.408-.213-.134-.532-.469-.903-.733-.281-.2-.638-.315-.997-.424a7.282 7.282 0 0 0-1.529-.272"/><path d="M40.048 20.49a5.55 5.55 0 0 1-.066.262 4.223 4.223 0 0 1-.411 1.045l-.009-.012-.003.006a3.787 3.787 0 0 0-1.862-1.348 3.765 3.765 0 0 0-1.173-.193c-.02 0-.039.002-.059.003-.815.012-1.518.284-2.131.735-.272.2-.562.471-.802.758a.867.867 0 0 0-.082 1.01c.304.487.82.763 1.044.865.304.137.672.2 1.03.2.634 0 1.084-.243 1.087-.24v.002l.002-.001c.003.003.008.002.01.006.023.03.015.076-.101.193-.146.146-1.486.947-2.913-.02a2.872 2.872 0 0 1-.593-.566 1.523 1.523 0 0 1-.034-1.799c.116-.168.24-.327.361-.464.39-.443 1.514-1.406 2.467-1.667 1.625-.447 2.084-.154 2.523-.206.604-.071.461-.414.057-.648-.128-.075-.241-.188-.275-.295-.034-.107.01-.209.198-.259.033-.007.066-.022.098-.022 1.765 0 1.818 1.856 1.637 2.655M35.112 47.717l.003.019h.01l-.013-.019M22.078 54.354c.428-.114.817-.246 1.231-.404.204-.08.409-.17.613-.273.205-.105.409-.223.606-.363.196-.136.376-.308.53-.503.078-.096.141-.203.197-.316.027-.06.056-.123.076-.178l.038-.155.002-.005a.208.208 0 0 0-.152-.253.2.2 0 0 0-.124.01.205.205 0 0 0-.097.063c-.13.152-.268.256-.417.337a2.778 2.778 0 0 1-.475.187c-.344.1-.724.152-1.112.202-.383.049-.799.092-1.179.129-.381.035-.77.054-1.164.068l-1.221.04c-.424.022-.865.044-1.372.161-.192.046-.4.104-.613.205a2.057 2.057 0 0 0-.216.115c-.277.173-.554.454-.69.781a1.492 1.492 0 0 0 .271 1.647.268.268 0 0 0 .298.059.764.764 0 0 0 .121-.088c.351-.568 1.104-.873 1.251-.908.608-.142 1.478-.18 2.315-.303.425-.062.854-.142 1.283-.255M18.248 52.003a.205.205 0 0 0 .19.218.2.2 0 0 0 .128-.035l.007-.005a.005.005 0 0 1 .004 0l.067-.045a2 2 0 0 1 .292-.165c.301-.137.604-.186.903-.193.41-.012.827.038 1.307.124.517.093 1.1.135 1.666.089.287-.021.577-.076.872-.156.147-.05.297-.099.449-.179a.014.014 0 0 1 .003-.002l.009-.004c.14-.079.335-.18.434-.396a.167.167 0 0 0-.122-.233s-.575-.108-.809-.176l-.73-.187a20.711 20.711 0 0 0-1.514-.32c-.57-.098-1.247-.094-1.878.152-.08.031-.159.067-.236.107-.537.276-.999.773-1.042 1.406M19.073 49.982c.026-.006.361-.127.52-.179l-.004-.002c.006-.002-1.975-.717-.851-1.993l.005-.049c-.004.004-.006-.009-.009-.005a1.085 1.085 0 0 0-1.017.411c-.538.667.2 1.391.22 1.405-.11-.009-.375-.048-.485-.06-.479-.328-1.272-1.134-.134-2.841-.029-.004-.058-.005-.087-.007a1.06 1.06 0 0 0-.477.091 1.96 1.96 0 0 0-.254.104c-.561.273-.943.803-.943 1.418 0 .251.068.485.181.697.082.154.193.292.322.414-.085-.007-.448-.03-.534-.056-.522-.599-1.098-1.721.014-3.034a1.055 1.055 0 0 0-.563.083 1.78 1.78 0 0 0-.282.132c-.615.351-.916 1.024-.916 1.579 0 .251.091.66.182.882.73 1.787 4.179 1.245 5.112 1.01M36.612 53.421a2.057 2.057 0 0 0-.216-.115 3.064 3.064 0 0 0-.613-.205c-.507-.117-.948-.139-1.372-.161l-1.221-.04a20.865 20.865 0 0 1-1.164-.068c-.38-.037-.796-.08-1.179-.129-.388-.05-.768-.102-1.112-.202a2.778 2.778 0 0 1-.475-.187 1.424 1.424 0 0 1-.417-.337.205.205 0 0 0-.097-.063.2.2 0 0 0-.124-.01.208.208 0 0 0-.152.253l.002.005.038.155c.02.055.049.118.076.178.056.113.118.22.197.316.154.195.334.367.53.503.197.14.401.258.606.363.204.103.409.193.613.273.414.158.803.29 1.231.404.429.113.858.193 1.284.255.837.123 1.706.161 2.314.303.147.035.9.34 1.251.908 0 0 .087.075.121.088.1.042.219.023.298-.059a1.492 1.492 0 0 0 .271-1.647c-.136-.327-.413-.608-.69-.781M29.696 51.65l.008.004.003.001c.153.081.303.13.45.18.295.08.585.135.871.156a6.59 6.59 0 0 0 1.667-.089c.48-.086.897-.136 1.307-.124.299.007.602.056.903.193a2 2 0 0 1 .292.165l.065.044h.004l.009.006a.204.204 0 0 0 .317-.183c-.042-.633-.504-1.13-1.041-1.406a2.374 2.374 0 0 0-.236-.107c-.631-.246-1.308-.25-1.878-.152-.536.091-1.013.197-1.514.32l-.731.187c-.234.068-.808.176-.808.176a.167.167 0 0 0-.122.233c.098.216.294.317.434.396M39.146 46.511a1.78 1.78 0 0 0-.282-.132 1.057 1.057 0 0 0-.563-.083c1.112 1.313.535 2.435.014 3.034-.087.026-.449.049-.534.056.129-.122.24-.26.322-.414.112-.212.181-.446.181-.697 0-.615-.382-1.145-.943-1.418a1.96 1.96 0 0 0-.254-.104 1.06 1.06 0 0 0-.477-.091c-.029.002-.058.003-.087.007 1.138 1.707.345 2.513-.134 2.841-.11.012-.375.051-.485.06.02-.014.758-.738.22-1.405a1.085 1.085 0 0 0-1.017-.411c-.003-.004-.005.009-.009.005l.005.049c1.124 1.276-.857 1.991-.851 1.993l-.004.002c.159.052.494.173.52.179.933.235 4.382.777 5.112-1.01.091-.222.182-.631.182-.882 0-.555-.301-1.228-.916-1.579M30.135 41.272c-.019-.025-.079-.039-.079-.039a.116.116 0 0 0-.082.011 1.385 1.385 0 0 0-.564.67c-.044.118-.079.237-.053.364.029.127.091.259.267.405.039.032.19.088.297.054.216-.071.324-.169.398-.276.073-.107.084-.232.088-.357a1.364 1.364 0 0 0-.272-.832"/><path d="M52.788 30.294a.592.592 0 0 0-.296-.357.595.595 0 0 0-.455-.049l-.025.008c-.684.204-1.4.418-2.104.581-.352.086-.702.17-1.052.247-.349.074-.693.134-1.072.184a48.79 48.79 0 0 1-2.214.245c-.474.039-.959.072-1.431.093l.205-.054c.205-.057.407-.116.607-.179.399-.125.791-.259 1.177-.4a38.67 38.67 0 0 0 2.277-.921c.751-.321 1.537-.685 2.233-1.135.7-.462 1.358-.944 1.973-1.544a.593.593 0 0 0-.161-.96.594.594 0 0 0-.562.016l-.024.014a30.5 30.5 0 0 1-2.02 1.089c-.693.339-1.35.662-2.089.914-.734.257-1.482.497-2.226.705-.372.104-.745.2-1.115.285l-.248.052c.187-.08.371-.162.548-.248a19.99 19.99 0 0 0 1.172-.624 33.854 33.854 0 0 0 2.19-1.389c.726-.489 1.449-1.022 2.079-1.629.629-.62 1.208-1.254 1.717-2.005a.593.593 0 0 0-.249-.871.59.59 0 0 0-.653.095l-.022.02a26.712 26.712 0 0 1-1.844 1.556c-.639.493-1.263.973-1.963 1.373-.131.077-.265.148-.396.222-.583.331-1.17.649-1.763.934-.115.055-.23.107-.345.16a15.08 15.08 0 0 1-.648.28l.118-.08c.254-.179.493-.366.727-.555.13-.105.26-.209.385-.316a29.613 29.613 0 0 0 1.965-1.849l.024-.024c.658-.67 1.275-1.361 1.798-2.123.516-.771.977-1.547 1.338-2.43a.592.592 0 0 0-.206-.708l-.012-.005v-.001a.593.593 0 0 0-.826.143l-.018.025a25.753 25.753 0 0 1-1.55 2.009c-.164.193-.33.385-.496.575-.39.444-.791.874-1.226 1.26-.218.193-.438.378-.659.564-.399.337-.802.665-1.213.972.063-.082.128-.164.189-.247.341-.468.654-.942.954-1.421.208-.332.41-.666.607-1.002.347-.581.663-1.177.937-1.789.123-.274.24-.551.343-.833.329-.917.594-1.828.734-2.821a.591.591 0 0 0-.388-.64h-.003l-.009-.006a.591.591 0 0 0-.755.36l-.01.029c-.25.704-.551 1.428-.877 2.126-.051.111-.097.227-.151.336-.367.757-.751 1.501-1.199 2.2-.027.042-.051.085-.078.126-.336.493-.687.972-1.046 1.439-1.106 1.233-2.971 2.467-3.98 2.958-.491.238-.993.565-1.496.811-.007.004-.015.009-.023.012-.339.165-.63.428-.802.763a2.075 2.075 0 0 0-.109.267 1.661 1.661 0 0 0-.086.516c0 .645.352 1.265.88 1.541.175.095.371.151.58.157.035.001.062-.004.092-.007a.585.585 0 0 0 .281-.097s-.141-.379.075-.55a.821.821 0 0 1 .748-.071.794.794 0 0 1-.215 1.515c-.176.069-.515.08-.731.08a7.118 7.118 0 0 1-2.966-.653c-.63-.291-1.787-1.14-1.77-1.188-1.191-1.106-1.944-2.625-2.009-4.306-.003-.078-.013-.154-.013-.232a6.21 6.21 0 0 1 .318-1.955 6.266 6.266 0 0 1 1.037-1.93c.044-.055.248-.279.511-.54l.047-.046.008-.009c.291-.285.643-.605.944-.802h-.001l.003-.002a1.721 1.721 0 0 1-.186-.177c-.549-.054-.744-.314-.836-.535l-.008-.021a.9.9 0 0 1-.02-.052 1.223 1.223 0 0 1-.018-.367c.042-.203.163-.403.267-.502.049-.055.1-.104.154-.146.165-.127.353-.197.552-.236.05-.01.1-.019.151-.025l.019-.003c.509-.053 1.013.168 1.215.689l.001.003c-.028.02-.322.075-.322.075h-.001c-.105-.224-.279-.318-.483-.303a.759.759 0 0 0-.212.051.43.43 0 0 0-.122.073c-.327.278-.04.982.413 1.032a.496.496 0 0 0 .224-.03l.008-.003c.199-.079 1.462-.382 2.223-.502.146-.023.275-.04.372-.047a.026.026 0 0 0 .009-.005l.001-.001.002-.001c.131-.213.137-1.617-.969-2.074-.874-.362-1.633-.42-2.319-.421a7.948 7.948 0 0 0-1.767.191c-2.25.494-3.62 1.798-4.873 4.617v.001c-.85 1.666-1.155 3.265-1.278 3.705l-.124.001c-.127-.471-.431-2.061-1.268-3.704v-.001c-1.255-2.82-2.63-4.123-4.881-4.617a8.002 8.002 0 0 0-1.773-.191c-.687.001-1.446.059-2.32.421-1.105.457-1.1 1.861-.968 2.074l.009.005c.097.007.227.024.372.047.761.12 2.024.423 2.223.502a.496.496 0 0 0 .232.033c.499-.055.797-.904.293-1.103a.75.75 0 0 0-.212-.051c-.204-.015-.378.079-.482.303h-.002s-.31-.058-.324-.076l.002-.004c.202-.521.705-.742 1.214-.689l.019.003a1.9 1.9 0 0 1 .151.025c.265.052.511.159.709.384.104.098.225.299.266.502.01.035.012.285-.017.367l-.021.052-.008.021c-.092.221-.287.481-.835.535a2.211 2.211 0 0 1-.186.177c.32.21.699.56 1 .859.264.261.468.486.512.541a6.242 6.242 0 0 1 1.036 1.93 6.222 6.222 0 0 1 .318 1.959c0 .078-.009.158-.012.236a6.39 6.39 0 0 1-.032.417c-.149.705-.463 1.849-1.045 2.816l-.091.131h.01a4.276 4.276 0 0 1-.782.931c.018.048-1.139.897-1.77 1.188a7.11 7.11 0 0 1-2.966.653c-.215 0-.554-.011-.731-.08a.794.794 0 0 1-.214-1.515.792.792 0 0 1 .748.071c.216.171.075.55.075.55s.1.078.28.097c.031.003.058.008.093.007a1.29 1.29 0 0 0 .58-.157c.528-.276.88-.896.88-1.541 0-.181-.033-.353-.087-.516a1.936 1.936 0 0 0-.108-.267 1.756 1.756 0 0 0-.803-.763l-.022-.012c-.503-.246-1.005-.573-1.496-.811-1.009-.491-2.874-1.725-3.981-2.958a31.876 31.876 0 0 1-1.045-1.439c-.027-.041-.052-.084-.078-.126-.448-.699-.832-1.443-1.199-2.2-.054-.109-.1-.225-.152-.336a24.617 24.617 0 0 1-.876-2.126l-.01-.029a.591.591 0 0 0-.755-.36l-.009.006H6.24a.591.591 0 0 0-.388.64c.14.993.405 1.904.734 2.821.103.282.22.559.343.833.274.612.59 1.208.937 1.789.197.336.399.67.607 1.002.3.479.613.953.954 1.421.06.083.125.165.189.247a26.057 26.057 0 0 1-1.213-.972c-.221-.186-.442-.371-.66-.564a14.315 14.315 0 0 1-1.225-1.26 45.43 45.43 0 0 1-.496-.575 26.014 26.014 0 0 1-1.551-2.009l-.017-.025a.592.592 0 0 0-.825-.143l-.001.001-.012.005a.594.594 0 0 0-.207.708c.362.883.823 1.659 1.339 2.43.523.762 1.14 1.453 1.798 2.123l.024.024a29.844 29.844 0 0 0 1.964 1.849c.126.107.256.211.385.316.235.189.474.376.728.555l.118.08a15.08 15.08 0 0 1-.648-.28c-.115-.053-.23-.105-.345-.16a29.279 29.279 0 0 1-1.763-.934c-.132-.074-.265-.145-.396-.222-.7-.4-1.324-.88-1.963-1.373a26.478 26.478 0 0 1-1.844-1.556l-.023-.02a.59.59 0 0 0-.653-.095.593.593 0 0 0-.248.871c.508.751 1.088 1.385 1.717 2.005.63.607 1.353 1.14 2.079 1.629.708.485 1.432.952 2.19 1.389.379.217.767.427 1.171.624.178.086.361.168.549.248l-.248-.052c-.37-.085-.743-.181-1.116-.285a36.523 36.523 0 0 1-2.225-.705c-.739-.252-1.396-.575-2.089-.914a30.5 30.5 0 0 1-2.02-1.089l-.024-.014a.596.596 0 0 0-.563-.016.593.593 0 0 0-.16.96c.615.6 1.273 1.082 1.973 1.544.695.45 1.482.814 2.232 1.135.751.33 1.503.637 2.278.921.386.141.778.275 1.177.4.2.063.401.122.607.179l.205.054a38.443 38.443 0 0 1-1.431-.093 48.632 48.632 0 0 1-2.214-.245c-.379-.05-.723-.11-1.072-.184-.35-.077-.701-.161-1.053-.247-.703-.163-1.419-.377-2.103-.581l-.025-.008a.598.598 0 0 0-.456.049.594.594 0 0 0-.038 1.031c.693.427 1.399.741 2.141 1.029.73.279 1.544.458 2.292.613.755.165 1.511.312 2.274.441.688.113 1.356.213 2.074.287-.436.052-.876.102-1.313.146-.705.069-1.412.127-2.118.173a12.95 12.95 0 0 1-.531.025l-.506.009-1.026-.02c-.686-.007-1.393-.055-2.075-.093h-.023a.582.582 0 0 0-.338.084.59.59 0 0 0 .101 1.076c.725.249 1.441.398 2.183.519.371.054.746.088 1.124.104.189.009.379.014.57.016l.545.008c.728.016 1.456.019 2.185.01.504-.006.614-.007 1.12-.025l.067.221a66.11 66.11 0 0 1-2.242.667c-.654.184-1.274.306-1.918.439-.639.144-1.302.258-1.943.391l-.018.004a.622.622 0 0 0-.124.041.594.594 0 0 0 .18 1.14c.715.064 1.406.044 2.113 0 .703-.047 1.414-.205 2.084-.33.675-.125 1.668-.361 2.337-.501l.053.169c-.278.159-.88.48-1.159.634-.278.154-.556.294-.835.43-.276.135-.552.266-.829.405l-.002.001-.011.005c-.557.288-1.133.563-1.689.864l-.009.005a.595.595 0 0 0 .395 1.11 16.25 16.25 0 0 0 1.911-.514c.626-.209 1.235-.5 1.83-.761.158-.069.782-.337.939-.407l.108.496a188.7 188.7 0 0 1-.448.313l-.688.596c-.453.404-.876.846-1.277 1.316a.601.601 0 0 0 .066.847.6.6 0 0 0 .667.073l.008-.004.004-.002c.55-.286 1.073-.605 1.568-.961l.524-.307c.002.012.288 1.732.363 2.445.234 2.222.168 4.779.407 5.078.201.249.599.192.957.203-.024-.085-.036-.164-.054-.246 0-.008.002-.016.001-.025-.257-1.191.097-2.07.316-2.429.004-.006.002-.013.005-.019a.468.468 0 0 0 .025-.095c-.078-1.413-.268-3.692-.587-5.462-.509-2.822-1.364-7.342-1.606-8.622a.212.212 0 0 1 .06-.193.226.226 0 0 1 .207-.051c.866.219 2.288.347 3.207.407.686.045 2.322.04 4.009-.477-.715 1.687-1.122 3.621-1.122 5.678 0 4.03 1.564 7.595 3.947 9.733a5.515 5.515 0 0 0-.55.105c-.614.215-1.095.525-1.365.682l-.017.015c-.018.008-.038.016-.053.024-.094.052-.099.158-.077.262.063.291.225.655.383.87.035.048.07.094.129.097 2.229.111 3.867.28 5.18 1.113l.018.012c.036.022.069.05.104.074.621.488.871 1.5.365 2.219-.174.179-.355.353-.535.518a9.064 9.064 0 0 1-1.969 1.311 7.31 7.31 0 0 1-2.162.657c-.742.135-1.482.234-2.451.463l-.006.002a.228.228 0 0 0-.085.039.232.232 0 0 0-.045.354c.711.768 1.762 1.072 2.775 1.015a6.203 6.203 0 0 0 2.191-.605 7.033 7.033 0 0 0 2.777-2.359l.033-.051-.006.026c-.125.433-.537 1.569-.867 1.949-.334.384-.64.751-.993 1.04a4.484 4.484 0 0 1-1.161.695c-.445.184-.956.304-1.557.433l-.005.001a.227.227 0 0 0-.082.037.22.22 0 0 0-.014.366c.534.38 1.208.557 1.907.515a3.474 3.474 0 0 0 1.953-.789c.092-.075.165-.159.246-.242.154.307.317.613.435.919.156.365.28.73.48 1.095.045.081.145.119.184.112 0 .007.157-.031.202-.112.2-.365.342-.73.498-1.095.118-.306.281-.612.434-.919.082.083.155.167.246.242.272.226.583.412.913.546.334.137.687.222 1.041.243.699.042 1.373-.135 1.907-.515a.22.22 0 0 0-.014-.366.235.235 0 0 0-.082-.037l-.006-.001c-.6-.129-1.111-.249-1.556-.433a4.484 4.484 0 0 1-1.161-.695c-.353-.289-.659-.656-.993-1.04-.33-.38-.742-1.516-.867-1.949l-.006-.026.033.051a7.033 7.033 0 0 0 2.777 2.359 6.197 6.197 0 0 0 2.191.605c1.013.057 2.064-.247 2.775-1.015a.234.234 0 0 0-.045-.354.228.228 0 0 0-.085-.039l-.006-.002c-.969-.229-1.709-.328-2.452-.463a7.314 7.314 0 0 1-2.161-.657 9.064 9.064 0 0 1-1.969-1.311c-.18-.165-.361-.339-.535-.518-.506-.719-.256-1.731.364-2.219.036-.024.069-.052.105-.074l.017-.012c1.314-.833 2.952-1.002 5.18-1.113.06-.003.094-.049.129-.097.159-.215.32-.579.383-.87.023-.104.016-.21-.077-.262-.015-.008-.036-.016-.054-.024l-.02-.015c-.27-.157-.756-.467-1.369-.682a5.413 5.413 0 0 0-.524-.099c2.387-2.138 3.956-5.704 3.956-9.739 0-2.056-.412-3.986-1.127-5.672 1.679.511 3.305.516 3.988.471.918-.06 2.341-.188 3.206-.407a.228.228 0 0 1 .208.051.212.212 0 0 1 .06.193c-.242 1.28-1.097 5.8-1.606 8.622-.32 1.77-.509 4.049-.587 5.462a.41.41 0 0 0 .025.095c.003.006.001.013.005.019.219.359.573 1.238.316 2.429-.002.009.001.017 0 .025-.018.082-.029.161-.053.246.357-.011.756.046.956-.203.24-.299.174-2.856.408-5.078.075-.713.361-2.433.363-2.445l.523.307a12.854 12.854 0 0 0 1.573.963l.008.004a.6.6 0 0 0 .667-.073.601.601 0 0 0 .066-.847c-.401-.47-.824-.912-1.278-1.316l-.688-.596-.447-.313.108-.496c.157.07.781.338.939.407.595.261 1.203.552 1.83.761.63.202 1.253.388 1.91.514a.596.596 0 0 0 .396-1.11l-.01-.005c-.555-.301-1.132-.576-1.689-.864l-.01-.005-.002-.001c-.277-.139-.553-.27-.829-.405a17.866 17.866 0 0 1-.835-.43c-.279-.154-.882-.475-1.159-.634l.053-.169c.669.14 1.661.376 2.337.501.67.125 1.381.283 2.084.33.707.044 1.397.064 2.113 0a.595.595 0 0 0 .18-1.14.622.622 0 0 0-.124-.041l-.018-.004c-.641-.133-1.304-.247-1.943-.391-.644-.133-1.264-.255-1.918-.439a65.433 65.433 0 0 1-2.242-.667l.067-.221c.506.018.616.019 1.12.025.729.009 1.457.006 2.185-.01l.545-.008c.19-.002.381-.007.57-.016.378-.016.753-.05 1.123-.104.743-.121 1.459-.27 2.184-.519a.594.594 0 0 0 .101-1.076.584.584 0 0 0-.338-.084h-.023c-.682.038-1.389.086-2.076.093l-1.025.02-.506-.009a12.866 12.866 0 0 1-.531-.025 65.206 65.206 0 0 1-2.118-.173 71.19 71.19 0 0 1-1.313-.146 34.05 34.05 0 0 0 2.073-.287c.764-.129 1.52-.276 2.275-.441.748-.155 1.561-.334 2.292-.613.742-.288 1.448-.602 2.141-1.029a.595.595 0 0 0 .257-.674zM26.89 48.464l-.031-.001c-2.651-.014-4.994-1.795-6.411-4.504.66-1.114 2.025-3.545 2.025-3.545.129.498.89 3.794.89 3.794.001.071.925 2.139 3.828 2.09.603-.01 1.435-.327 1.757-1.059-.962-.376-1.779-1.254-2.092-2.707a8.514 8.514 0 0 1-.186-1.717c-.007-.637.046-1.305.171-1.991.004-.024.01-.047.015-.071.452-2.38 1.931-4.196 2.359-4.351-.133-.306-.077-1.081-1.113-1.509-.223-.092-.917-.133-.982-.452.327-.222.575-.639.636-1.14.082-.672-.201-1.274-.654-1.49.109-.248.375-.587.375-.587l-.517-.554-.104.055-.565.302s.17.485.169.747c-.446.148-.777.499-.853 1.123-.037.305.13.779.478 1.127.188.188.225.347.109.464-.255.255-.783.192-1.054.588-.171.249-.377.824-.377.824-.128.259-.878 2.058-1.246 2.692-.093.16-.467.749-.467.749s-.163.112-.345.259c-.149.119-.31.261-.409.387-.284.364-.169 1.015.004 1.29l-2.183 3.99c-.085-.181-.126-.282-.126-.282-.614-1.499-.963-3.217-.963-5.043 0-5.591 3.274-10.175 7.39-10.503h.953c.454.038.897.128 1.327.264.226.072.447.156.664.252 3.128 1.391 5.39 5.34 5.39 9.987 0 5.802-3.527 10.522-7.862 10.522zm-.809-11.397s-1.53.58-2.26.875l1.492-2.586c.003.013.07.363.676.617-.018.093.092 1.094.092 1.094z"/><path d="M32.476 40.07c-.439 2.638-1.877 4.597-3.212 4.375-1.335-.222-2.061-2.541-1.623-5.179.439-2.638 1.877-4.597 3.212-4.375 1.335.222 2.061 2.541 1.623 5.179"/><path d="M31.932 39.946c-.33 1.983-1.345 3.467-2.267 3.314-.922-.154-1.402-1.886-1.072-3.87.33-1.983 1.345-3.467 2.267-3.313.922.153 1.402 1.885 1.072 3.869"/><path d="M31.053 42.941l-.669.088-.912-6.925.669-.088.912 6.925"/><path d="M28.853 43.191l-.53-.261 3.35-6.785.529.262-3.349 6.784"/></g></svg>